<svg width="45" height="45" viewBox="0 0 45 45" fill="none" xmlns="http://www.w3.org/2000/svg">
<path d="M22.5 0.00100708C10.0934 0.00100708 0 10.0944 0 22.5008C0 34.9072 10.0934 45.0005 22.5 45.0005C34.9066 45.0005 45 34.9072 45 22.5008C45 10.0944 34.9066 0.00100708 22.5 0.00100708ZM37.1623 10.6124C39.6883 13.7217 41.2434 17.6462 41.3727 21.9242C36.6937 20.9555 32.4568 21.0692 28.7166 21.8026C28.0393 20.2188 27.3382 18.7099 26.6306 17.2839C30.704 15.5292 34.2501 13.2879 37.1623 10.6124ZM34.6277 8.03639C31.7369 10.675 28.3869 12.6287 24.9566 14.0711C22.4388 9.46698 20.0299 5.99985 18.5625 4.02954C19.8332 3.75883 21.1499 3.61361 22.5 3.61361C27.1138 3.61361 31.3441 5.27878 34.6277 8.03639ZM14.9138 5.20941C16.0219 6.6453 18.6613 10.2406 21.4964 15.3558C14.3709 17.6772 7.45689 18.0683 4.1345 18.1047C5.51933 12.3197 9.5705 7.5629 14.9138 5.20941ZM3.63235 21.7265C3.66799 21.7265 3.70243 21.7267 3.7388 21.7267C6.03449 21.7267 10.2405 21.5723 15.1922 20.6694C18.0172 20.1543 20.6961 19.4609 23.2098 18.6016C23.8641 19.9057 24.5146 21.2814 25.1454 22.7233C21.6258 23.8565 18.6576 25.4869 16.3066 27.1059C12.364 29.8209 9.60205 32.833 8.09391 34.6955C5.30161 31.4025 3.6126 27.1463 3.6126 22.5008C3.6126 22.2411 3.62175 21.9837 3.63235 21.7265ZM10.6972 37.2303C11.9955 35.5955 14.6383 32.6199 18.4611 30.009C21.0591 28.2344 23.7468 26.9161 26.5138 26.0507C28.1193 30.212 29.4899 34.8099 30.3071 39.6919C27.9256 40.7776 25.2836 41.3879 22.5 41.3879C18.0368 41.3879 13.9331 39.8285 10.6972 37.2303ZM33.6307 37.7467C32.7884 33.2629 31.5325 29.047 30.0804 25.1941C33.6521 24.5915 37.3435 24.7158 41.1348 25.5674C40.3171 30.5504 37.5443 34.8816 33.6307 37.7467Z" fill="black"/>
</svg>
