<svg width="45" height="44" viewBox="0 0 45 44" fill="none" xmlns="http://www.w3.org/2000/svg">
<path d="M22.5 0C10.0687 0 0 9.9 0 22.11C0 31.8806 6.44625 40.1663 15.3844 43.0875C16.5094 43.2956 16.9219 42.6113 16.9219 42.0244C16.9219 41.4994 16.9031 40.1081 16.8938 38.265C10.635 39.5981 9.315 35.2988 9.315 35.2988C8.29125 32.7469 6.81187 32.0644 6.81187 32.0644C4.77375 30.6938 6.96938 30.7219 6.96938 30.7219C9.22875 30.8756 10.4156 33 10.4156 33C12.4219 36.3806 15.6825 35.4038 16.9688 34.8394C17.1713 33.4088 17.7506 32.4356 18.3938 31.8825C13.3969 31.3294 8.145 29.4281 8.145 20.9569C8.145 18.5438 9.01688 16.5713 10.4606 15.0244C10.2075 14.4656 9.44812 12.2175 10.6575 9.1725C10.6575 9.1725 12.5419 8.58 16.845 11.4394C18.645 10.9481 20.5575 10.7044 22.47 10.6931C24.3825 10.7044 26.295 10.9481 28.095 11.4394C32.37 8.58 34.2544 9.1725 34.2544 9.1725C35.4637 12.2175 34.7044 14.4656 34.4794 15.0244C35.9137 16.5713 36.7856 18.5438 36.7856 20.9569C36.7856 29.4506 31.5263 31.32 26.52 31.8638C27.3075 32.5275 28.0388 33.8831 28.0388 35.955C28.0388 38.9138 28.0106 41.2913 28.0106 42.0094C28.0106 42.5888 28.4044 43.2806 29.5575 43.0594C38.5594 40.1569 45 31.8656 45 22.11C45 9.9 34.9256 0 22.5 0Z" fill="black"/>
</svg>
